<svg width="536" height="460" viewBox="0 0 536 460" fill="none" xmlns="http://www.w3.org/2000/svg">
<g clip-path="url(#clip0_241_1539)">
<path d="M418.714 74.1689H382.295V385.299C382.295 390.181 381.336 395.015 379.471 399.525C377.607 404.035 374.875 408.133 371.43 411.584C367.985 415.036 363.896 417.774 359.395 419.642C354.895 421.51 350.071 422.472 345.199 422.472H66.7637V422.828C66.7637 427.709 67.7232 432.543 69.5874 437.053C71.4516 441.563 74.1841 445.661 77.6288 449.112C81.0734 452.564 85.1628 455.302 89.6635 457.17C94.1642 459.038 98.988 460 103.859 460H418.714C423.585 460 428.409 459.038 432.91 457.17C437.411 455.302 441.5 452.564 444.945 449.112C448.389 445.661 451.122 441.563 452.986 437.053C454.85 432.543 455.81 427.709 455.81 422.828V111.341C455.81 106.46 454.85 101.626 452.986 97.116C451.122 92.6061 448.389 88.5082 444.945 85.0565C441.5 81.6047 437.411 78.8666 432.91 76.9985C428.409 75.1304 423.585 74.1689 418.714 74.1689Z" fill="#B5B5B5"/>
<path d="M373.649 42.2522H15.3975C6.89368 42.2522 0 49.1601 0 57.6814V412.654C0 421.175 6.89368 428.083 15.3975 428.083H373.649C382.152 428.083 389.046 421.175 389.046 412.654V57.6814C389.046 49.1601 382.152 42.2522 373.649 42.2522Z" fill="#F2F2F2"/>
<path d="M37.0959 49.8967C29.2808 49.8967 21.7857 53.0077 16.2596 58.5452C10.7335 64.0828 7.62891 71.5933 7.62891 79.4246V390.911C7.62891 398.742 10.7335 406.253 16.2596 411.79C21.7857 417.328 29.2808 420.439 37.0959 420.439H238.044C317.227 420.439 381.417 356.116 381.417 276.77V79.4246C381.417 71.5933 378.312 64.0828 372.786 58.5452C367.26 53.0077 359.765 49.8967 351.95 49.8967H37.0959Z" fill="#C8E3FF"/>
<path d="M397.56 258.936C395.951 259.383 394.264 259.475 392.616 259.204C390.968 258.933 389.398 258.307 388.015 257.368C386.632 256.43 385.47 255.202 384.607 253.768C383.745 252.335 383.203 250.732 383.02 249.068L328 232.418L328.854 216.036L394.058 236.29C396.875 236.19 399.631 237.128 401.804 238.928C403.977 240.727 405.415 243.263 405.847 246.054C406.279 248.846 405.674 251.699 404.146 254.073C402.619 256.448 400.276 258.178 397.56 258.936Z" fill="#ECB4B7"/>
<path d="M212.319 174.431C206.748 169.772 214.906 146.681 212.706 139.989C212.574 139.583 212.449 139.177 212.331 138.77C212.082 137.906 212.138 136.983 212.489 136.155L233.168 126.408C238.556 128.614 243.521 131.742 247.84 135.652L279.786 172.213L311.523 200.936L325.449 207.157L371.594 227.781L371.116 229.163L371.112 229.167L366.04 243.929L366.04 243.937L376.186 251.025L342.967 246.011L320.997 236.929L299.842 228.187C268.608 209.351 217.217 199.587 212.319 174.431Z" fill="#FF9983"/>
<path d="M359.552 343.867C358.943 344.145 358.262 344.228 357.604 344.106C356.945 343.983 356.34 343.661 355.87 343.183C355.4 342.704 355.089 342.092 354.977 341.431C354.866 340.769 354.961 340.088 355.248 339.482C355.203 339.147 355.17 338.906 355.125 338.571C355.071 338.515 355.017 338.46 354.963 338.405C349.503 332.855 340.059 336.701 339.963 344.494C339.877 351.41 339.125 358.607 340.862 365.186C341.631 368.093 342.898 370.845 344.606 373.319C333.79 363.022 325.31 350.515 319.741 336.647C318.347 333.165 317.149 329.608 316.151 325.992C315.336 323.027 314.653 320.032 314.101 317.008C311.125 300.592 312.078 283.704 316.881 267.728C320.528 263.302 322.733 257.862 323.199 252.141C323.374 250.082 323.25 248.009 322.831 245.985C322.332 246.266 317.66 238.817 317.86 238.164C316.68 237.343 315.145 237.316 313.908 236.549C307.757 232.735 302.645 235.886 302.721 244.395C297.836 249.951 299.831 255.11 305.564 258.541C309.211 260.724 311.24 264.844 314.683 267.366C314.578 267.73 314.461 268.088 314.356 268.452C312.444 275.118 311.189 281.957 310.608 288.869C308.871 282.159 304.592 274.953 300.557 270.821C295.963 266.112 289.682 263.114 283.873 259.78C276.896 255.776 268.421 262.15 270.578 269.911C270.599 269.986 270.62 270.061 270.642 270.136C271.344 270.23 272.042 270.349 272.736 270.492C273.61 270.676 274.407 271.121 275.024 271.768C275.641 272.415 276.049 273.233 276.194 274.116C276.339 274.999 276.215 275.905 275.837 276.715C275.459 277.526 274.846 278.204 274.078 278.659L273.999 278.706C275.03 280.692 276.211 282.597 277.53 284.405C280.25 305.562 293.723 308.255 309.098 302.444C309.503 302.482 309.901 302.523 310.303 302.553C310.696 311.938 312.305 321.233 315.09 330.203C316.75 335.488 318.833 340.63 321.32 345.579L321.221 345.408C317.838 340.153 312.748 336.23 306.812 334.3C298.027 331.514 287.888 333.261 279.009 331.751C274.735 331.024 271.425 335.511 273.619 339.258C273.654 339.317 273.689 339.377 273.725 339.437C274.961 339.444 276.196 339.528 277.422 339.689C278.124 339.783 278.822 339.901 279.516 340.044C280.389 340.229 281.187 340.674 281.804 341.32C282.421 341.967 282.829 342.785 282.974 343.668C283.119 344.551 282.994 345.457 282.617 346.268C282.239 347.079 281.626 347.756 280.857 348.212L280.779 348.258C280.722 348.291 280.673 348.321 280.616 348.353C284.17 351.969 288.319 354.945 292.88 357.151C302.666 372.643 316.586 368.896 328.848 358.316L328.857 358.312C333.131 364.476 338.034 370.177 343.485 375.325L367.566 365.654C367.545 365.351 367.512 365.043 367.482 364.744C365.309 365.78 363.018 366.545 360.66 367.022C361.568 364.108 362.469 361.176 363.377 358.262C363.4 358.205 363.421 358.146 363.437 358.087C363.894 356.599 364.363 355.116 364.819 353.627L364.819 353.626C363.489 350.16 361.719 346.88 359.553 343.867L359.552 343.867Z" fill="#F2F2F2"/>
<path d="M227.191 365.103L226.915 364.757C226.12 359.634 227.191 365.103 227.191 365.103Z" fill="#2F2E41"/>
<path d="M241.296 420.366H164.149C158.155 405.435 153.995 394.757 153.995 394.757C153.995 394.757 152.985 405.216 151.543 420.366H81.7971C81.1444 379.197 80.2305 336.926 79.9297 323.501L213.802 326.489L227.118 343.411C227.163 343.693 227.209 344.005 227.265 344.357C227.805 347.795 235.053 384.701 241.296 420.366Z" fill="#2F2E41"/>
<path d="M240.128 130.813L240.115 130.789C239.689 129.997 239.005 129.377 238.176 129.032C229.706 122.446 220.432 119.444 210.023 121.498C208.319 116.328 206.73 116.328 206.73 116.328L184.156 108.857L180.908 88.9822L125.287 87.0957L120.232 111.898C120.232 111.898 89.1422 117.482 89.1422 121.521C89.1422 125.559 94.3238 125.559 89.1422 125.559C83.9606 125.559 82.573 120.944 78.0881 125.559C77.7038 125.947 77.2983 126.313 76.8733 126.655C76.8215 126.701 76.7639 126.742 76.7121 126.788C71.6434 130.783 67.6602 135.993 65.1296 141.936C62.5991 147.88 61.6027 154.366 62.2324 160.798L71.7953 256.122L82.0031 357.839L221.699 363.666L231.055 277.111L240.571 133.098C240.656 132.309 240.502 131.512 240.128 130.813Z" fill="#FF9983"/>
<path d="M10.8061 386.441C11.6037 388.451 12.4085 389.924 13.2206 390.653L284.149 391.23C284.961 390.501 285.766 389.028 286.564 387.018C296.04 363.129 278.164 337.225 252.511 337.176L44.8734 336.781C19.2548 336.733 1.34293 362.585 10.8061 386.441Z" fill="white"/>
<path d="M284.368 391.807L284.147 391.807L12.9987 391.229L12.8354 391.083C11.9909 390.325 11.1517 388.876 10.2699 386.654C8.02698 381.096 7.19971 375.067 7.86264 369.109C8.52556 363.151 10.6579 357.452 14.0672 352.526C17.4713 347.498 22.0521 343.382 27.4096 340.537C32.7672 337.692 38.7384 336.204 44.8018 336.205H44.8732L252.51 336.6C258.596 336.611 264.586 338.115 269.957 340.981C275.329 343.847 279.918 347.986 283.326 353.038C286.73 357.979 288.858 363.69 289.516 369.658C290.174 375.626 289.343 381.664 287.098 387.231C286.216 389.453 285.376 390.902 284.532 391.66L284.368 391.807ZM31.3209 390.022L261.046 389.324C277.262 389.275 289.19 373.59 284.385 358.071C283.931 356.518 283.253 355.041 282.372 353.685C279.07 348.789 274.622 344.777 269.416 342C264.211 339.223 258.406 337.765 252.508 337.753L44.8709 337.358H44.8018C42.1652 337.446 39.5652 338.003 37.1232 339.003C23.7111 344.089 14.7425 356.873 13.9968 371.223C13.9873 371.406 13.9778 371.589 13.9684 371.771C13.8513 374.048 14.1828 376.325 14.944 378.473C15.7051 380.621 16.881 382.598 18.4045 384.29C19.9281 385.983 21.7694 387.358 23.8233 388.338C25.8773 389.317 28.1036 389.882 30.3753 389.999C30.6902 390.015 31.0054 390.023 31.3209 390.022Z" fill="#E6E6E6"/>
<path d="M336.839 182.572C333.871 170.085 334.366 157.785 339.447 145.734C339.501 144.988 339.847 144.295 340.411 143.805C340.974 143.315 341.709 143.069 342.453 143.121L370.217 145.095C370.961 145.149 371.653 145.496 372.142 146.061C372.631 146.626 372.876 147.361 372.824 148.107L370.216 184.946C370.162 185.691 369.816 186.385 369.252 186.875C368.689 187.365 367.954 187.611 367.21 187.558L339.446 185.584C338.702 185.531 338.01 185.183 337.521 184.619C337.032 184.054 336.787 183.318 336.839 182.572Z" fill="#F2F2F2"/>
<path d="M339.756 171.597C337.382 165.443 338.9 156.98 341.433 147.914C341.484 147.216 341.808 146.566 342.336 146.107C342.864 145.649 343.551 145.418 344.248 145.467L368.109 147.164C368.806 147.214 369.454 147.539 369.912 148.068C370.37 148.597 370.6 149.286 370.551 149.984L368.23 182.766C368.18 183.464 367.855 184.114 367.327 184.572C366.8 185.031 366.112 185.261 365.415 185.213L350.634 184.162C347.53 183.937 344.641 182.489 342.602 180.133C340.563 177.778 339.54 174.708 339.756 171.597Z" fill="white"/>
<path d="M356.277 173.203C355.548 173.078 354.819 172.952 354.091 172.827C354.426 172.033 354.62 171.186 354.663 170.324C355.008 165.714 355.043 161.059 355.227 156.439C355.222 156.27 355.169 156.106 355.073 155.967C354.977 155.828 354.843 155.719 354.688 155.655C354.532 155.59 354.361 155.572 354.195 155.602C354.029 155.633 353.875 155.711 353.753 155.827C351.922 157.346 350.092 158.866 348.261 160.385C347.405 161.096 348.632 162.314 349.483 161.609C350.797 160.518 352.11 159.428 353.424 158.337C353.304 161.364 353.183 164.392 353.062 167.419C353.005 168.872 353.181 170.636 352.587 172.002C352.506 172.186 352.4 172.358 352.272 172.514C351.465 172.375 350.658 172.236 349.851 172.097C349.271 171.997 348.534 172.483 348.789 173.162C349.345 174.638 350.982 175.104 352.386 174.535C352.509 174.48 352.629 174.415 352.744 174.343L355.818 174.872C356.905 175.059 357.372 173.392 356.277 173.203Z" fill="#FF9983"/>
<path d="M498.046 306.611C495.079 294.123 495.573 281.823 500.654 269.772C500.708 269.027 501.054 268.333 501.618 267.843C502.181 267.353 502.916 267.107 503.66 267.159L531.424 269.134C532.168 269.187 532.86 269.535 533.349 270.099C533.838 270.664 534.083 271.4 534.031 272.145L531.423 308.984C531.369 309.73 531.023 310.423 530.459 310.913C529.896 311.403 529.161 311.649 528.417 311.597L500.653 309.623C499.909 309.569 499.217 309.222 498.728 308.657C498.239 308.092 497.994 307.356 498.046 306.611Z" fill="#F2F2F2"/>
<path d="M500.963 295.635C498.589 289.482 500.107 281.018 502.64 271.952C502.691 271.254 503.015 270.604 503.543 270.145C504.071 269.687 504.758 269.456 505.455 269.505L529.316 271.202C530.013 271.252 530.662 271.577 531.119 272.106C531.577 272.635 531.807 273.324 531.758 274.022L529.437 306.804C529.387 307.502 529.062 308.152 528.534 308.611C528.007 309.069 527.319 309.299 526.622 309.251L511.841 308.2C508.737 307.976 505.849 306.527 503.809 304.171C501.77 301.816 500.747 298.746 500.963 295.635Z" fill="white"/>
<path d="M516.54 289.385C516.857 289.237 517.157 289.054 517.435 288.841C518.175 288.23 518.722 287.416 519.01 286.5C519.297 285.583 519.313 284.602 519.056 283.677C517.936 279.555 513.016 279.53 509.62 280.026C508.524 280.186 508.99 281.854 510.079 281.695C512.368 281.361 515.962 281.091 517.192 283.596C517.472 284.185 517.572 284.843 517.479 285.489C517.385 286.135 517.102 286.738 516.666 287.222C516.144 287.746 515.457 288.074 514.722 288.148C514.01 287.837 513.236 287.693 512.46 287.725C511.66 287.763 511.214 288.929 512.025 289.338C512.742 289.696 513.532 289.882 514.333 289.883C514.997 290.204 515.552 290.715 515.928 291.351C516.304 291.988 516.483 292.721 516.444 293.459C516.368 293.962 516.193 294.446 515.931 294.882C515.668 295.318 515.322 295.698 514.913 296C514.504 296.302 514.039 296.52 513.546 296.643C513.052 296.765 512.54 296.788 512.037 296.712L512.016 296.709C510.93 296.49 510.466 298.158 511.557 298.378C513.02 298.654 514.532 298.336 515.762 297.495C516.991 296.654 517.837 295.357 518.112 293.891C518.127 293.812 518.14 293.732 518.152 293.652C518.22 292.865 518.111 292.073 517.832 291.334C517.553 290.596 517.111 289.929 516.54 289.385Z" fill="#FF9983"/>
<path d="M466.956 109.303C463.989 96.8155 464.484 84.5156 469.564 72.4648C469.618 71.7193 469.965 71.0255 470.528 70.5357C471.092 70.0459 471.826 69.8 472.57 69.8521L500.334 71.8262C501.078 71.8799 501.771 72.2272 502.259 72.7919C502.748 73.3565 502.993 74.0924 502.942 74.838L500.333 111.677C500.279 112.422 499.933 113.116 499.369 113.606C498.806 114.096 498.071 114.341 497.327 114.289L469.563 112.315C468.819 112.262 468.127 111.914 467.638 111.35C467.149 110.785 466.904 110.049 466.956 109.303Z" fill="#F2F2F2"/>
<path d="M469.874 98.3282C467.499 92.1744 469.017 83.7108 471.551 74.645C471.601 73.9468 471.925 73.297 472.453 72.8383C472.981 72.3796 473.669 72.1493 474.365 72.1981L498.226 73.8947C498.923 73.945 499.572 74.2702 500.029 74.799C500.487 75.3278 500.717 76.017 500.668 76.7154L498.347 109.497C498.297 110.195 497.972 110.845 497.445 111.303C496.917 111.762 496.229 111.992 495.532 111.944L480.751 110.893C477.647 110.668 474.759 109.22 472.72 106.864C470.68 104.509 469.657 101.439 469.874 98.3282Z" fill="white"/>
<path d="M484.546 81.8314C482.1 80.9808 479.38 82.9192 479.102 85.4323C478.788 88.2807 481.846 90.5294 484.493 89.7552C485.557 89.4438 485.104 87.7731 484.033 88.0863C482.093 88.6537 480.023 86.5543 481.139 84.6773C481.392 84.2243 481.778 83.8593 482.243 83.6311C482.709 83.4028 483.233 83.3221 483.745 83.3995C484.18 83.5203 484.581 83.7416 484.915 84.0456C485.25 84.3497 485.508 84.728 485.67 85.1503C486.622 87.3001 485.491 89.4827 483.991 91.0453C483.136 91.9364 482.133 92.629 481.211 93.4413C480.763 93.7806 480.391 94.2102 480.118 94.7025C479.846 95.1948 479.68 95.7387 479.63 96.2994C479.654 96.9299 479.85 97.5417 480.196 98.0686C480.543 98.5956 481.026 99.0177 481.594 99.2892C483.067 100.048 484.742 99.8068 486.308 99.5542C487.403 99.3777 486.938 97.7096 485.849 97.8853C484.479 98.1062 482.428 98.4409 481.56 97.0093C480.816 95.7834 482.348 94.707 483.183 94.0548C485.28 92.4158 487.401 90.2992 487.716 87.5125C487.974 85.2296 486.817 82.621 484.546 81.8314Z" fill="#FF9983"/>
<path d="M63.2139 250.459L76.8933 256.632C70.4623 261.859 60.6691 268.892 51.0774 272.146L35.8377 261.732C30.161 239.798 33.6384 217.194 40.4609 198.08C44.2408 187.46 49.2534 177.321 55.3954 167.873C54.7663 161.442 55.7629 154.955 58.2934 149.012C60.824 143.068 64.8069 137.859 69.8751 133.863C69.9327 133.817 69.9845 133.777 70.0363 133.73C75.0844 138.12 79.208 143.475 82.1658 149.481C85.1236 155.487 86.8563 162.024 87.2623 168.709L87.5674 173.763L88.1777 183.721L89.7264 209.151L71.3605 237.767L63.2139 250.459Z" fill="#FF9983"/>
<path d="M102.568 359.026C102.728 359.227 102.931 359.389 103.163 359.5C103.394 359.611 103.648 359.668 103.904 359.667H197.369C197.624 359.666 197.877 359.609 198.107 359.499C198.338 359.388 198.541 359.228 198.702 359.029C198.863 358.83 198.978 358.598 199.038 358.349C199.098 358.1 199.102 357.84 199.05 357.59L197.599 350.684C197.539 350.402 197.409 350.14 197.222 349.922C197.035 349.703 196.797 349.535 196.528 349.432C196.334 349.356 196.127 349.316 195.918 349.317H105.349C105.14 349.316 104.933 349.356 104.739 349.432C104.47 349.535 104.232 349.703 104.045 349.922C103.858 350.14 103.728 350.402 103.668 350.684L102.217 357.59C102.166 357.84 102.17 358.099 102.231 358.348C102.292 358.596 102.407 358.828 102.568 359.026Z" fill="#2F2E41"/>
<path d="M66.7871 204.434V312.468C66.7882 313.845 67.3345 315.165 68.306 316.139C69.2775 317.112 70.5948 317.66 71.9687 317.661H231.735C233.109 317.66 234.426 317.112 235.398 316.139C236.369 315.165 236.915 313.845 236.916 312.468V204.434C236.913 203.059 236.366 201.74 235.395 200.768C234.424 199.796 233.108 199.249 231.735 199.248H71.9687C70.596 199.249 69.2799 199.796 68.3087 200.768C67.3375 201.74 66.7904 203.059 66.7871 204.434Z" fill="#3F3D56"/>
<path d="M131.861 296.465V355.634H173.228V296.465C173.229 296.039 173.093 295.625 172.841 295.282C172.589 294.939 172.235 294.687 171.829 294.561C171.638 294.498 171.437 294.466 171.236 294.469H133.859C133.33 294.468 132.823 294.677 132.448 295.051C132.073 295.425 131.862 295.933 131.861 296.463V296.465ZM148.005 316.795C148.016 315.629 148.486 314.514 149.313 313.693C150.14 312.872 151.257 312.412 152.421 312.412C153.585 312.412 154.702 312.872 155.529 313.693C156.356 314.514 156.826 315.629 156.837 316.795V323.661C156.831 324.831 156.363 325.95 155.535 326.775C154.708 327.6 153.588 328.063 152.421 328.063C151.254 328.063 150.134 327.6 149.306 326.775C148.479 325.95 148.011 324.831 148.005 323.661V316.795Z" fill="#2F2E41"/>
<path d="M156.005 84.8806C175.886 84.8806 192.003 68.7302 192.003 48.8076C192.003 28.885 175.886 12.7346 156.005 12.7346C136.123 12.7346 120.006 28.885 120.006 48.8076C120.006 68.7302 136.123 84.8806 156.005 84.8806Z" fill="#ECB4B7"/>
<path d="M199.107 42.497C195.226 43.7044 191.484 44.4161 188.96 41.226C186.436 38.0359 187.096 34.3884 183.342 32.8505C180.31 31.605 176.81 32.1388 173.753 33.2954C173.208 33.4987 172.675 33.7275 172.155 33.9562C171.863 33.702 171.572 33.4607 171.255 33.2318C168.868 31.5314 165.922 30.8127 163.023 31.2238C165.142 32.2495 166.886 33.9167 168.008 35.9898C166.968 36.5108 165.85 36.9003 164.85 37.4768C151.102 45.3971 135.813 48.587 137.061 35.367C141.221 46.3479 137.987 50.2624 131.886 60.2901L131.645 60.8747C132.254 58.2439 127.973 58.1193 124.276 59.0192C121.545 59.6839 123.312 66.0633 126.813 70.4576C118.987 58.6506 107.266 40.6236 117.402 31.5796C118.897 30.2457 119.835 28.3637 120.103 23.5472C120.262 20.6915 125.113 19.9759 127.675 21.2468C128.046 16.9529 129.543 12.8336 132.016 9.30689C134.489 5.7802 137.848 2.97159 141.753 1.16602C149.592 -2.32906 157.563 3.04742 166.08 4.08916C170.805 4.66716 174.389 6.57426 174.578 12.6172C174.703 16.6414 180.754 18.0822 184.712 18.7939C187.223 19.2388 190.051 18.9719 192.055 20.5606C194.376 22.4034 194.401 25.6443 194.389 28.7581C192.118 28.6932 189.879 29.3082 187.958 30.5247C190.309 30.5839 192.582 31.3844 194.452 32.8124C194.488 32.8347 194.522 32.8602 194.554 32.8887C195.239 38.125 194.96 39.2308 199.107 42.497Z" fill="#2F2E41"/>
<path d="M225.069 218.388C239.136 214.008 254.194 218.745 268.338 214.702C271.591 213.81 274.666 212.363 277.428 210.424C279.784 208.634 281.996 206.661 284.044 204.524C288.299 200.307 292.919 195.879 299.312 195.928C307.729 195.992 314.192 202.258 319.803 207.79C320.596 208.572 321.818 207.349 321.024 206.567C315.869 201.483 310.298 196.12 302.96 194.602C299.668 193.87 296.232 194.156 293.106 195.422C290.393 196.657 287.915 198.355 285.783 200.44C283.523 202.517 281.439 204.778 279.148 206.822C276.757 209.002 274.002 210.744 271.009 211.969C264.525 214.556 257.413 214.868 250.517 214.793C241.86 214.699 232.997 214.108 224.61 216.719C223.552 217.049 224.004 218.72 225.069 218.388Z" fill="#3F3D56"/>
<path d="M322.888 196.126L327.212 203.765L329.304 207.46C329.676 208.117 330.058 208.769 330.42 209.432C330.643 209.838 331.128 210.572 330.665 210.958C330.257 211.157 329.799 211.229 329.35 211.163C328.588 211.165 327.825 211.148 327.063 211.14L322.775 211.096L313.912 211.006C313.688 211.014 313.476 211.109 313.321 211.27C313.165 211.432 313.078 211.647 313.078 211.872C313.078 212.096 313.165 212.312 313.321 212.473C313.476 212.635 313.688 212.729 313.912 212.737C319.057 212.789 324.205 212.898 329.35 212.894C330.248 212.98 331.146 212.734 331.875 212.202C332.232 211.846 332.468 211.386 332.55 210.889C332.633 210.391 332.556 209.88 332.333 209.427C331.826 208.318 331.242 207.246 330.587 206.217L328.703 202.891L324.379 195.253C324.26 195.063 324.071 194.927 323.854 194.874C323.636 194.821 323.406 194.854 323.213 194.967C323.019 195.081 322.877 195.265 322.817 195.481C322.756 195.697 322.782 195.929 322.888 196.126Z" fill="#3F3D56"/>
<path d="M380.041 214.842H340.298C340.08 214.843 339.864 214.801 339.663 214.719C339.462 214.636 339.278 214.514 339.124 214.361C338.97 214.207 338.847 214.024 338.763 213.823C338.679 213.622 338.635 213.406 338.635 213.188C338.634 212.97 338.676 212.754 338.759 212.552C338.842 212.351 338.963 212.167 339.117 212.013C339.27 211.858 339.453 211.735 339.654 211.651C339.855 211.568 340.07 211.524 340.288 211.524C340.291 211.524 340.294 211.524 340.298 211.524H380.041C380.259 211.523 380.474 211.565 380.676 211.648C380.877 211.73 381.06 211.852 381.215 212.006C381.369 212.159 381.492 212.342 381.576 212.543C381.66 212.744 381.703 212.96 381.704 213.178C381.704 213.396 381.662 213.612 381.579 213.814C381.497 214.016 381.375 214.199 381.222 214.354C381.068 214.508 380.886 214.631 380.685 214.715C380.484 214.799 380.269 214.842 380.051 214.842C380.048 214.843 380.044 214.843 380.041 214.842Z" fill="#E6E6E6"/>
<path d="M380.039 241.57H340.296C340.078 241.571 339.863 241.529 339.662 241.446C339.461 241.363 339.278 241.241 339.123 241.088C338.969 240.934 338.847 240.752 338.763 240.551C338.679 240.349 338.635 240.134 338.635 239.916C338.634 239.698 338.676 239.482 338.759 239.28C338.842 239.079 338.963 238.896 339.116 238.741C339.27 238.586 339.452 238.464 339.652 238.38C339.853 238.296 340.068 238.252 340.286 238.251C340.289 238.251 340.292 238.251 340.296 238.251H380.039C380.257 238.251 380.472 238.293 380.673 238.376C380.874 238.459 381.057 238.58 381.211 238.734C381.366 238.888 381.488 239.07 381.572 239.271C381.656 239.472 381.699 239.688 381.7 239.906C381.701 240.124 381.659 240.34 381.576 240.541C381.493 240.743 381.372 240.926 381.219 241.081C381.065 241.235 380.883 241.358 380.682 241.442C380.482 241.526 380.267 241.57 380.049 241.57C380.046 241.57 380.042 241.57 380.039 241.57Z" fill="#E6E6E6"/>
<path d="M419.056 228.206H340.298C340.08 228.207 339.864 228.165 339.663 228.082C339.462 228 339.278 227.878 339.124 227.724C338.97 227.571 338.847 227.388 338.763 227.187C338.679 226.986 338.635 226.77 338.635 226.552C338.634 226.334 338.676 226.118 338.759 225.916C338.842 225.714 338.963 225.531 339.117 225.376C339.27 225.222 339.453 225.099 339.654 225.015C339.855 224.931 340.07 224.888 340.288 224.887C340.291 224.887 340.294 224.887 340.298 224.887H419.056C419.273 224.887 419.489 224.929 419.69 225.011C419.892 225.094 420.075 225.216 420.229 225.369C420.384 225.523 420.506 225.706 420.59 225.907C420.674 226.108 420.718 226.324 420.719 226.542C420.719 226.76 420.677 226.976 420.594 227.178C420.512 227.379 420.39 227.563 420.236 227.717C420.083 227.872 419.901 227.995 419.7 228.079C419.499 228.162 419.283 228.206 419.066 228.206C419.062 228.206 419.059 228.206 419.056 228.206Z" fill="#E6E6E6"/>
<path d="M366.325 199.171C375.069 187.292 390.002 182.17 399.007 170.518C401.101 167.869 402.723 164.877 403.802 161.675C404.642 158.835 405.258 155.932 405.645 152.995C406.58 147.072 407.686 140.762 412.865 137.007C419.684 132.063 428.595 133.274 436.386 134.402C436.609 134.428 436.833 134.367 437.011 134.231C437.189 134.095 437.308 133.894 437.342 133.672C437.376 133.45 437.322 133.224 437.192 133.041C437.063 132.858 436.867 132.732 436.647 132.691C429.488 131.655 421.83 130.64 415.02 133.773C411.935 135.138 409.336 137.408 407.565 140.283C406.11 142.888 405.117 145.727 404.632 148.672C404.039 151.687 403.696 154.746 403.058 157.752C402.42 160.928 401.231 163.967 399.544 166.73C395.849 172.663 390.304 177.136 384.703 181.169C377.672 186.231 370.182 191.016 364.969 198.098C364.311 198.992 365.663 200.07 366.325 199.171Z" fill="#3F3D56"/>
<path d="M431.975 123.173L439.974 126.761L443.845 128.496C444.533 128.805 445.226 129.103 445.909 129.422C446.329 129.618 447.154 129.921 447.008 130.507C446.909 130.906 446.375 131.227 446.07 131.452C445.457 131.906 444.833 132.345 444.214 132.791L440.733 135.302L433.54 140.49C433.364 140.629 433.249 140.831 433.219 141.053C433.189 141.276 433.247 141.501 433.379 141.682C433.512 141.863 433.709 141.985 433.93 142.022C434.151 142.06 434.378 142.011 434.563 141.884C438.739 138.872 442.951 135.904 447.093 132.847C447.868 132.383 448.446 131.652 448.718 130.791C448.796 130.292 448.714 129.782 448.486 129.332C448.258 128.882 447.895 128.515 447.447 128.283C446.383 127.691 445.279 127.173 444.143 126.734L440.659 125.171L432.66 121.584C432.452 121.502 432.22 121.504 432.013 121.591C431.806 121.677 431.64 121.841 431.551 122.047C431.462 122.253 431.457 122.486 431.536 122.696C431.615 122.906 431.773 123.077 431.975 123.173Z" fill="#3F3D56"/>
<path d="M503.822 132.343H464.079C463.861 132.344 463.646 132.302 463.444 132.219C463.243 132.136 463.06 132.015 462.905 131.861C462.751 131.707 462.628 131.525 462.544 131.323C462.46 131.122 462.417 130.906 462.416 130.688C462.415 130.47 462.458 130.254 462.54 130.053C462.623 129.851 462.745 129.667 462.898 129.513C463.052 129.358 463.234 129.236 463.435 129.152C463.636 129.068 463.851 129.024 464.069 129.024C464.072 129.024 464.076 129.024 464.079 129.024H503.822C504.04 129.023 504.255 129.065 504.457 129.148C504.658 129.23 504.841 129.352 504.996 129.506C505.15 129.659 505.273 129.842 505.357 130.043C505.441 130.244 505.484 130.46 505.485 130.678C505.486 130.896 505.443 131.112 505.361 131.314C505.278 131.516 505.156 131.699 505.003 131.854C504.849 132.008 504.667 132.131 504.466 132.215C504.265 132.299 504.05 132.342 503.832 132.343C503.829 132.343 503.826 132.343 503.822 132.343Z" fill="#FF9983"/>
<path d="M396.839 251.562C405.583 263.441 420.515 268.562 429.521 280.215C431.615 282.864 433.237 285.856 434.316 289.057C435.156 291.898 435.772 294.801 436.159 297.738C437.094 303.661 438.199 309.971 443.378 313.726C450.198 318.67 459.109 317.458 466.9 316.331C467.122 316.305 467.347 316.366 467.525 316.502C467.703 316.638 467.822 316.838 467.856 317.06C467.89 317.282 467.836 317.509 467.706 317.692C467.576 317.875 467.381 318.001 467.16 318.042C460.002 319.078 452.343 320.093 445.534 316.96C442.449 315.595 439.85 313.325 438.079 310.449C436.624 307.844 435.631 305.006 435.145 302.06C434.552 299.046 434.209 295.987 433.572 292.98C432.934 289.805 431.744 286.766 430.058 284.002C426.363 278.069 420.817 273.596 415.217 269.564C408.186 264.501 400.696 259.717 395.482 252.634C394.825 251.741 396.177 250.662 396.839 251.562Z" fill="#3F3D56"/>
<path d="M462.491 327.56L470.49 323.973L474.36 322.237C475.048 321.928 475.741 321.63 476.424 321.311C476.844 321.115 477.669 320.812 477.523 320.226C477.424 319.827 476.89 319.506 476.586 319.281C475.973 318.827 475.348 318.388 474.729 317.942L471.249 315.431L464.055 310.244C463.879 310.104 463.764 309.902 463.734 309.68C463.705 309.457 463.762 309.232 463.895 309.051C464.027 308.87 464.225 308.748 464.446 308.711C464.666 308.673 464.893 308.722 465.078 308.849C469.254 311.861 473.466 314.829 477.609 317.886C478.383 318.35 478.961 319.081 479.234 319.942C479.311 320.441 479.23 320.951 479.002 321.401C478.774 321.851 478.41 322.218 477.963 322.45C476.898 323.042 475.794 323.56 474.658 323.999L471.175 325.562L463.176 329.149C462.967 329.231 462.735 329.229 462.528 329.142C462.321 329.056 462.156 328.892 462.067 328.686C461.978 328.48 461.973 328.247 462.052 328.037C462.131 327.827 462.288 327.656 462.491 327.56Z" fill="#3F3D56"/>
<path d="M534.337 323.304H494.593C494.154 323.305 493.733 323.132 493.421 322.822C493.11 322.512 492.934 322.091 492.932 321.652C492.93 321.212 493.102 320.789 493.411 320.477C493.72 320.164 494.14 319.987 494.579 319.985C494.583 319.985 494.588 319.985 494.593 319.985H534.337C534.775 319.983 535.197 320.157 535.509 320.466C535.82 320.776 535.996 321.197 535.998 321.637C536 322.077 535.828 322.499 535.519 322.812C535.21 323.124 534.79 323.301 534.351 323.304C534.346 323.304 534.342 323.304 534.337 323.304Z" fill="#FF9983"/>
<path d="M81.275 258.802C80.5225 260.296 79.4551 261.608 78.1467 262.648C76.8383 263.688 75.32 264.431 73.6969 264.825C72.0739 265.22 70.3847 265.256 68.7462 264.931C67.1078 264.607 65.5592 263.93 64.2076 262.947L22.8151 282.686L20.041 271.06L62.195 246.168C64.0155 244.011 66.5622 242.598 69.3526 242.197C72.143 241.796 74.9832 242.435 77.3351 243.993C79.6869 245.55 81.387 247.918 82.1132 250.647C82.8393 253.376 82.5411 256.278 81.275 258.802Z" fill="#ECB4B7"/>
<path d="M65.3236 198.846L36.1972 258.483L48.5064 252.892L57.0733 248.998L61.3683 265.348C61.3683 265.348 58.5242 268.117 54.0392 271.758C47.6083 276.985 37.815 284.017 28.2233 287.271C20.7157 289.821 13.3406 290.058 7.80202 285.304C-2.71088 276.281 7.56597 240.448 17.4974 213.165C24.1471 194.894 30.6356 180.465 30.6356 180.465C30.6356 161.196 67.9539 133.489 74.88 129.698C78.8352 127.541 79.9289 130.683 79.9289 130.683L58.2248 162.523L64.7133 188.889L66.5499 196.337L65.3236 198.846Z" fill="#FF9983"/>
</g>
<defs>
<clipPath id="clip0_241_1539">
<rect width="536" height="460" fill="white"/>
</clipPath>
</defs>
</svg>
